<svg width="12" height="21" viewBox="0 0 12 21" fill="none" xmlns="http://www.w3.org/2000/svg">
<path d="M0.893735 11.1846H3.19423V20.6613C3.19423 20.8484 3.34575 21 3.53273 21H7.43331C7.6203 21 7.77181 20.8484 7.77181 20.6613V11.2292H10.4164C10.5884 11.2292 10.7331 11.1001 10.7527 10.9292L11.1544 7.44037C11.1654 7.34438 11.135 7.24825 11.0708 7.17624C11.0066 7.10416 10.9146 7.06291 10.8182 7.06291H7.77195V4.87593C7.77195 4.21666 8.12669 3.88236 8.82644 3.88236C8.92616 3.88236 10.8182 3.88236 10.8182 3.88236C11.0051 3.88236 11.1567 3.73068 11.1567 3.54365V0.341216C11.1567 0.154113 11.0051 0.00250645 10.8182 0.00250645H8.07328C8.05392 0.00155806 8.01093 0 7.94756 0C7.47129 0 5.81583 0.0935515 4.50815 1.29733C3.05924 2.6313 3.26065 4.22852 3.30878 4.50545V7.06284H0.893735C0.706749 7.06284 0.555237 7.21445 0.555237 7.40155V10.8458C0.555237 11.0329 0.706749 11.1846 0.893735 11.1846Z" fill="#FECD68"/>
</svg>
