<svg width="25" height="25" viewBox="0 0 25 25" fill="none" xmlns="http://www.w3.org/2000/svg">
<path d="M12.5 17.1667C15.0773 17.1667 17.1666 15.0773 17.1666 12.5C17.1666 9.92271 15.0773 7.83337 12.5 7.83337C9.92265 7.83337 7.83331 9.92271 7.83331 12.5C7.83331 15.0773 9.92265 17.1667 12.5 17.1667Z" stroke="#FFCD66" stroke-width="2.5" stroke-linecap="round" stroke-linejoin="round"/>
<path d="M2 17.1667V7.83333C2 4.61168 4.61168 2 7.83333 2H17.1667C20.3883 2 23 4.61168 23 7.83333V17.1667C23 20.3883 20.3883 23 17.1667 23H7.83333C4.61168 23 2 20.3883 2 17.1667Z" stroke="#FFCD66" stroke-width="2.5"/>
<path d="M18.9167 6.09503L18.9284 6.08191" stroke="#FFCD66" stroke-width="2.5" stroke-linecap="round" stroke-linejoin="round"/>
</svg>
