<svg width="73" height="50" viewBox="0 0 73 50" fill="none" xmlns="http://www.w3.org/2000/svg">
<path d="M46.8676 24.5C46.8676 36.9264 36.794 47 24.3676 47C11.9413 47 1.86768 36.9264 1.86768 24.5C1.86768 12.0736 11.9413 2 24.3676 2C36.794 2 46.8676 12.0736 46.8676 24.5Z" fill="#68DBFF"/>
<path d="M71.1324 24.5C71.1324 36.9264 61.1574 47 48.8529 47C36.5484 47 26.5735 36.9264 26.5735 24.5C26.5735 12.0736 36.5484 2 48.8529 2C61.1574 2 71.1324 12.0736 71.1324 24.5Z" fill="#FF7917"/>
<path d="M36.6705 43.3416C42.8109 39.3239 46.8676 32.3858 46.8676 24.5C46.8676 16.6144 42.8109 9.67614 36.6705 5.65854C30.5904 9.67614 26.5735 16.6144 26.5735 24.5C26.5735 32.3858 30.5904 39.3239 36.6705 43.3416Z" fill="#5D2C02"/>
</svg>
