<svg width="127" height="40" viewBox="0 0 127 40" fill="none" xmlns="http://www.w3.org/2000/svg">
<path d="M19.5 2.5C17.2019 2.5 14.9262 2.9527 12.803 3.8321C10.6798 4.7116 8.7507 6.0006 7.1256 7.6256C5.5006 9.2507 4.2116 11.1798 3.3321 13.303C2.4527 15.4262 2 17.7019 2 20C2 22.2981 2.4527 24.5738 3.3321 26.697C4.2116 28.8202 5.5006 30.7493 7.1256 32.3744C8.7507 33.9994 10.6798 35.2884 12.803 36.1679C14.9262 37.0473 17.2019 37.5 19.5 37.5V28.75C18.3509 28.75 17.2131 28.5237 16.1515 28.0839C15.0899 27.6442 14.1253 26.9997 13.3128 26.1872C12.5003 25.3747 11.8558 24.4101 11.4161 23.3485C10.9763 22.2869 10.75 21.1491 10.75 20C10.75 18.8509 10.9763 17.7131 11.4161 16.6515C11.8558 15.5899 12.5003 14.6253 13.3128 13.8128C14.1253 13.0003 15.0899 12.3558 16.1515 11.9161C17.2131 11.4763 18.3509 11.25 19.5 11.25V2.5Z" fill="#0F52FF"/>
<path d="M19.5001 25.8333C22.7218 25.8333 25.3334 23.2217 25.3334 20C25.3334 16.7783 22.7218 14.1667 19.5001 14.1667C16.2784 14.1667 13.6668 16.7783 13.6668 20C13.6668 23.2217 16.2784 25.8333 19.5001 25.8333Z" fill="#0F52FF"/>
<path d="M2 20C2 22.2981 2.4527 24.5738 3.3321 26.697C4.2116 28.8202 5.5006 30.7493 7.1256 32.3744C8.7507 33.9994 10.6798 35.2884 12.803 36.1679C14.9262 37.0473 17.2019 37.5 19.5 37.5C21.7981 37.5 24.0738 37.0473 26.197 36.1679C28.3202 35.2884 30.2493 33.9994 31.8744 32.3744C33.4994 30.7493 34.7884 28.8202 35.6679 26.697C36.5473 24.5738 37 22.2981 37 20H28.25C28.25 21.1491 28.0237 22.2869 27.5839 23.3485C27.1442 24.4101 26.4997 25.3747 25.6872 26.1872C24.8747 26.9997 23.9101 27.6442 22.8485 28.0839C21.7869 28.5237 20.6491 28.75 19.5 28.75C18.3509 28.75 17.2131 28.5237 16.1515 28.0839C15.0899 27.6442 14.1253 26.9997 13.3128 26.1872C12.5003 25.3747 11.8558 24.4101 11.4161 23.3485C10.9763 22.2869 10.75 21.1491 10.75 20H2Z" fill="#5BD0F4"/>
<path d="M25.3334 20C25.3334 18.4529 24.7188 16.9692 23.6249 15.8752C22.5309 14.7812 21.0472 14.1666 19.5001 14.1666C17.953 14.1666 16.4693 14.7812 15.3753 15.8752C14.2813 16.9692 13.6667 18.4529 13.6667 20H19.5001H25.3334Z" fill="#5BD0F4"/>
<path d="M46.1396 13.425H43.9661V25.5H46.1396V13.425Z" fill="#0F52FF"/>
<path d="M47.5589 21.222C47.5589 24.0165 49.4909 25.7415 52.0439 25.7415C54.5969 25.7415 56.5289 24.0165 56.5289 21.222C56.5289 18.4275 54.5969 16.7025 52.0439 16.7025C49.4909 16.7025 47.5589 18.4275 47.5589 21.222ZM49.7324 21.222C49.7324 19.566 50.6984 18.6 52.0439 18.6C53.3894 18.6 54.3554 19.566 54.3554 21.222C54.3554 22.878 53.3894 23.844 52.0439 23.844C50.6984 23.844 49.7324 22.878 49.7324 21.222Z" fill="#0F52FF"/>
<path d="M64.296 16.944V18.0997H64.1235C63.606 17.358 62.778 16.7025 61.2945 16.7025C59.259 16.7025 57.4305 18.4275 57.4305 21.084C57.4305 23.7405 59.259 25.4655 61.2945 25.4655C62.778 25.4655 63.606 24.7927 64.089 24.12H64.2615V24.948C64.2615 26.604 63.2955 27.363 61.881 27.363C60.4665 27.363 59.742 26.604 59.4487 25.6207L57.4995 26.466C57.948 27.7597 59.259 29.1915 61.9155 29.1915C64.641 29.1915 66.435 27.7597 66.435 24.9997V16.944H64.296ZM61.95 23.6025C60.6045 23.6025 59.604 22.6365 59.604 21.084C59.604 19.5315 60.6045 18.5655 61.95 18.5655C63.2955 18.5655 64.296 19.5315 64.296 21.084C64.296 22.6365 63.2955 23.6025 61.95 23.6025Z" fill="#0F52FF"/>
<path d="M67.8411 21.222C67.8411 24.0165 69.7731 25.7415 72.3261 25.7415C74.8791 25.7415 76.811 24.0165 76.811 21.222C76.811 18.4275 74.8791 16.7025 72.3261 16.7025C69.7731 16.7025 67.8411 18.4275 67.8411 21.222ZM70.0146 21.222C70.0146 19.566 70.9806 18.6 72.3261 18.6C73.6716 18.6 74.6376 19.566 74.6376 21.222C74.6376 22.878 73.6716 23.844 72.3261 23.844C70.9806 23.844 70.0146 22.878 70.0146 21.222Z" fill="#0F52FF"/>
<path d="M78.517 14.46C78.517 15.3398 79.19 15.9435 80.053 15.9435C80.915 15.9435 81.588 15.3398 81.588 14.46C81.588 13.5803 80.915 12.9765 80.053 12.9765C79.19 12.9765 78.517 13.5803 78.517 14.46ZM81.139 16.944H78.966V25.5H81.139V16.944Z" fill="#5BD0F4"/>
<path d="M83.076 28.95H85.25V24.396H85.422C85.905 25.086 86.733 25.7415 88.217 25.7415C90.252 25.7415 92.081 24.0165 92.081 21.222C92.081 18.4275 90.252 16.7025 88.217 16.7025C86.733 16.7025 85.905 17.358 85.388 18.0998H85.215V16.944H83.076V28.95ZM87.561 23.8785C86.216 23.8785 85.215 22.9125 85.215 21.222C85.215 19.5315 86.216 18.5655 87.561 18.5655C88.907 18.5655 89.907 19.5315 89.907 21.222C89.907 22.9125 88.907 23.8785 87.561 23.8785Z" fill="#5BD0F4"/>
<path d="M93.349 19.3418C93.349 21.0323 94.763 21.6533 96.557 21.9983L97.006 22.0845C98.075 22.2915 98.558 22.5503 98.558 23.1023C98.558 23.6543 98.075 24.0855 97.075 24.0855C96.074 24.0855 95.264 23.6715 95.039 22.4295L93.038 22.947C93.332 24.741 94.832 25.7415 97.075 25.7415C99.248 25.7415 100.663 24.7238 100.663 22.9298C100.663 21.1357 99.214 20.6528 97.282 20.2733L96.833 20.187C95.936 20.0145 95.453 19.773 95.453 19.2038C95.453 18.6863 95.902 18.3585 96.73 18.3585C97.558 18.3585 98.144 18.7035 98.351 19.635L100.318 19.0313C99.904 17.6513 98.645 16.7025 96.73 16.7025C94.694 16.7025 93.349 17.6513 93.349 19.3418Z" fill="#5BD0F4"/>
<path d="M110.426 25.5V16.944H108.253V21.36C108.253 22.947 107.477 23.8785 106.148 23.8785C104.975 23.8785 104.32 23.2403 104.32 21.9465V16.944H102.146V22.05C102.146 24.1718 103.475 25.638 105.476 25.638C107.045 25.638 107.77 24.948 108.115 24.2235H108.287V25.5H110.426Z" fill="#5BD0F4"/>
<path d="M112.354 16.944V25.5H114.528V20.394C114.528 19.221 115.08 18.5655 116.08 18.5655C116.943 18.5655 117.46 19.0485 117.46 19.98V25.5H119.634V20.394C119.634 19.221 120.186 18.5655 121.186 18.5655C122.049 18.5655 122.566 19.0485 122.566 19.98V25.5H124.74V19.8765C124.74 17.8065 123.463 16.806 121.876 16.806C120.479 16.806 119.841 17.427 119.427 18.1515H119.254C118.857 17.3408 118.15 16.806 116.908 16.806C115.666 16.806 114.993 17.358 114.666 18.0135H114.493V16.944H112.354Z" fill="#5BD0F4"/>
</svg>
