<svg width="170" height="30" viewBox="0 0 170 30" fill="none" xmlns="http://www.w3.org/2000/svg">
<path d="M14.0496 2.92705C14.3489 2.00574 15.6523 2.00574 15.9517 2.92705L18.1438 9.67376C18.2777 10.0858 18.6616 10.3647 19.0949 10.3647H26.1888C27.1575 10.3647 27.5603 11.6044 26.7766 12.1738L21.0375 16.3435C20.687 16.5981 20.5403 17.0495 20.6742 17.4615L22.8663 24.2082C23.1657 25.1295 22.1112 25.8956 21.3275 25.3262L15.5884 21.1565C15.2379 20.9019 14.7633 20.9019 14.4128 21.1565L8.67373 25.3262C7.89002 25.8956 6.83554 25.1295 7.13489 24.2082L9.32703 17.4615C9.4609 17.0495 9.31424 16.5981 8.96376 16.3435L3.22466 12.1738C2.44095 11.6044 2.84372 10.3647 3.81245 10.3647H10.9064C11.3396 10.3647 11.7235 10.0858 11.8574 9.67376L14.0496 2.92705Z" fill="url(#paint0_linear_58_364)"/>
<path d="M49.0496 2.92705C49.3489 2.00574 50.6523 2.00574 50.9517 2.92705L53.1438 9.67376C53.2777 10.0858 53.6616 10.3647 54.0949 10.3647H61.1888C62.1575 10.3647 62.5603 11.6044 61.7766 12.1738L56.0375 16.3435C55.687 16.5981 55.5403 17.0495 55.6742 17.4615L57.8663 24.2082C58.1657 25.1295 57.1112 25.8956 56.3275 25.3262L50.5884 21.1565C50.2379 20.9019 49.7633 20.9019 49.4128 21.1565L43.6737 25.3262C42.89 25.8956 41.8355 25.1295 42.1349 24.2082L44.327 17.4615C44.4609 17.0495 44.3142 16.5981 43.9638 16.3435L38.2247 12.1738C37.4409 11.6044 37.8437 10.3647 38.8124 10.3647H45.9064C46.3396 10.3647 46.7235 10.0858 46.8574 9.67376L49.0496 2.92705Z" fill="url(#paint1_linear_58_364)"/>
<path d="M84.0496 2.92705C84.3489 2.00574 85.6523 2.00574 85.9517 2.92705L88.1438 9.67376C88.2777 10.0858 88.6616 10.3647 89.0949 10.3647H96.1888C97.1575 10.3647 97.5603 11.6044 96.7766 12.1738L91.0375 16.3435C90.687 16.5981 90.5403 17.0495 90.6742 17.4615L92.8663 24.2082C93.1657 25.1295 92.1112 25.8956 91.3275 25.3262L85.5884 21.1565C85.2379 20.9019 84.7633 20.9019 84.4128 21.1565L78.6737 25.3262C77.89 25.8956 76.8355 25.1295 77.1349 24.2082L79.327 17.4615C79.4609 17.0495 79.3142 16.5981 78.9638 16.3435L73.2247 12.1738C72.4409 11.6044 72.8437 10.3647 73.8124 10.3647H80.9064C81.3396 10.3647 81.7235 10.0858 81.8574 9.67376L84.0496 2.92705Z" fill="url(#paint2_linear_58_364)"/>
<path d="M119.05 2.92705C119.349 2.00574 120.652 2.00574 120.952 2.92705L123.144 9.67376C123.278 10.0858 123.662 10.3647 124.095 10.3647H131.189C132.157 10.3647 132.56 11.6044 131.777 12.1738L126.037 16.3435C125.687 16.5981 125.54 17.0495 125.674 17.4615L127.866 24.2082C128.166 25.1295 127.111 25.8956 126.327 25.3262L120.588 21.1565C120.238 20.9019 119.763 20.9019 119.413 21.1565L113.674 25.3262C112.89 25.8956 111.836 25.1295 112.135 24.2082L114.327 17.4615C114.461 17.0495 114.314 16.5981 113.964 16.3435L108.225 12.1738C107.441 11.6044 107.844 10.3647 108.812 10.3647H115.906C116.34 10.3647 116.724 10.0858 116.857 9.67376L119.05 2.92705Z" fill="url(#paint3_linear_58_364)"/>
<path d="M154.05 2.92705C154.349 2.00574 155.652 2.00574 155.952 2.92705L158.144 9.67376C158.278 10.0858 158.662 10.3647 159.095 10.3647H166.189C167.157 10.3647 167.56 11.6044 166.777 12.1738L161.037 16.3435C160.687 16.5981 160.54 17.0495 160.674 17.4615L162.866 24.2082C163.166 25.1295 162.111 25.8956 161.327 25.3262L155.588 21.1565C155.238 20.9019 154.763 20.9019 154.413 21.1565L148.674 25.3262C147.89 25.8956 146.836 25.1295 147.135 24.2082L149.327 17.4615C149.461 17.0495 149.314 16.5981 148.964 16.3435L143.225 12.1738C142.441 11.6044 142.844 10.3647 143.812 10.3647H150.906C151.34 10.3647 151.724 10.0858 151.857 9.67376L154.05 2.92705Z" fill="url(#paint4_linear_58_364)"/>
<defs>
<linearGradient id="paint0_linear_58_364" x1="0.000610407" y1="15" x2="30.0006" y2="15" gradientUnits="userSpaceOnUse">
<stop stop-color="#FFCD66"/>
<stop offset="1" stop-color="#FFE0A3"/>
</linearGradient>
<linearGradient id="paint1_linear_58_364" x1="35.0006" y1="15" x2="65.0006" y2="15" gradientUnits="userSpaceOnUse">
<stop stop-color="#FFCD66"/>
<stop offset="1" stop-color="#FFE0A3"/>
</linearGradient>
<linearGradient id="paint2_linear_58_364" x1="70.0006" y1="15" x2="100.001" y2="15" gradientUnits="userSpaceOnUse">
<stop stop-color="#FFCD66"/>
<stop offset="1" stop-color="#FFE0A3"/>
</linearGradient>
<linearGradient id="paint3_linear_58_364" x1="105.001" y1="15" x2="135.001" y2="15" gradientUnits="userSpaceOnUse">
<stop stop-color="#FFCD66"/>
<stop offset="1" stop-color="#FFE0A3"/>
</linearGradient>
<linearGradient id="paint4_linear_58_364" x1="140.001" y1="15" x2="170.001" y2="15" gradientUnits="userSpaceOnUse">
<stop stop-color="#FFCD66"/>
<stop offset="1" stop-color="#FFE0A3"/>
</linearGradient>
</defs>
</svg>
