<svg width="18" height="17" viewBox="0 0 18 17" fill="none" xmlns="http://www.w3.org/2000/svg">
<path d="M16.6988 1.71984C16.4853 1.55207 16.2276 1.44213 15.9531 1.40172C15.6787 1.3613 15.3978 1.39193 15.1403 1.49034L1.69955 6.61513C1.41219 6.72683 1.16758 6.91841 0.998183 7.16445C0.828782 7.41049 0.742595 7.69936 0.751057 7.99274C0.759518 8.28612 0.862228 8.57013 1.04556 8.80709C1.22889 9.04406 1.48418 9.22278 1.77755 9.31954L4.4963 10.2128L6.0113 14.9458C6.03206 15.009 6.06211 15.0691 6.10055 15.1243C6.10655 15.1328 6.1148 15.1385 6.1208 15.1477C6.165 15.2058 6.21837 15.2572 6.27905 15.3C6.29599 15.3125 6.31351 15.3244 6.33155 15.3354C6.40259 15.3799 6.48125 15.4125 6.56405 15.4318L6.5738 15.4325L6.5783 15.4346C6.62842 15.4441 6.67943 15.4488 6.73055 15.4488L6.74405 15.4466C6.82086 15.4454 6.89701 15.433 6.9698 15.4098C6.98705 15.4041 7.0013 15.3956 7.0178 15.3885C7.07225 15.3675 7.12386 15.3404 7.17155 15.3078C7.20954 15.2773 7.24754 15.2469 7.28555 15.2164L9.31205 13.1035L12.3345 15.3149C12.6006 15.5106 12.9281 15.617 13.2653 15.6173C13.6187 15.6169 13.9613 15.5018 14.2355 15.2912C14.5097 15.0806 14.6989 14.7873 14.7713 14.4606L17.2185 3.11525C17.2739 2.86001 17.2548 2.59536 17.1632 2.34958C17.0717 2.1038 16.9112 1.88614 16.6988 1.71984ZM7.02755 10.438C6.92368 10.5359 6.85272 10.6606 6.82355 10.7964L6.59105 11.8618L6.00305 10.025L9.0518 8.5255L7.02755 10.438ZM13.254 14.195L9.6818 11.5813C9.53233 11.4723 9.34489 11.4206 9.15682 11.4363C8.96876 11.4521 8.79389 11.5342 8.66705 11.6663L8.01755 12.3427L8.24705 11.2894L13.5593 6.27229C13.6853 6.15252 13.7619 5.99417 13.7753 5.82578C13.7886 5.65738 13.7378 5.49003 13.632 5.35389C13.5262 5.21775 13.3724 5.12178 13.1983 5.08328C13.0243 5.04478 12.8413 5.06629 12.6825 5.14392L5.0588 8.89242L2.26505 7.92696L15.7493 2.83334L13.254 14.195Z" fill="#1F1C1C"/>
</svg>
