<svg width="19" height="19" viewBox="0 0 19 19" fill="none" xmlns="http://www.w3.org/2000/svg">
<path d="M12.3851 9.02816C12.3946 7.84699 11.42 6.76399 10.2127 6.61437L10.1336 6.60249C10.073 6.59047 10.0116 6.58359 9.94989 6.58191C9.7021 6.58191 9.63639 6.76083 9.61897 6.8677C9.60909 6.91209 9.60821 6.958 9.61636 7.00274C9.62452 7.04747 9.64156 7.09012 9.66647 7.12816C9.74881 7.24295 9.89289 7.26274 10.0085 7.28016C10.0425 7.28491 10.075 7.28887 10.1011 7.29599C11.1865 7.54537 11.5522 7.93883 11.7303 9.04953C11.7351 9.07724 11.7367 9.11049 11.7383 9.14612C11.7462 9.27833 11.7628 9.55462 12.051 9.55462C12.0747 9.55462 12.1001 9.55303 12.127 9.54828C12.3953 9.50633 12.3866 9.25378 12.3827 9.13266C12.3807 9.1034 12.3807 9.07404 12.3827 9.04478C12.3836 9.03955 12.3841 9.03426 12.3843 9.02895L12.3851 9.02816Z" fill="#1F1C1C"/>
<path d="M9.87981 6.18053C9.91147 6.1829 9.94314 6.18528 9.96768 6.18923C11.7489 6.47265 12.5691 7.34348 12.7963 9.19757C12.8003 9.22923 12.8003 9.26724 12.8011 9.3084C12.8034 9.45328 12.8082 9.75411 13.1217 9.76044H13.1312C13.1742 9.76273 13.2173 9.75579 13.2574 9.74009C13.2975 9.72439 13.3339 9.70029 13.3639 9.6694C13.4613 9.56411 13.455 9.40815 13.4494 9.28148C13.4478 9.2514 13.4463 9.22211 13.4471 9.19678C13.4692 7.30073 11.8796 5.58123 10.0445 5.5179L10.0223 5.51869C10.0152 5.51973 10.0081 5.52026 10.0009 5.52028C9.98272 5.52028 9.95976 5.51869 9.93601 5.51711C9.90443 5.51422 9.87273 5.51264 9.84101 5.51236C9.54889 5.51236 9.49347 5.72611 9.48635 5.85436C9.47051 6.14965 9.74681 6.17103 9.87981 6.18053ZM12.71 11.5932C12.6719 11.5633 12.6342 11.5329 12.5968 11.5021C12.4021 11.3406 12.1946 11.1918 11.9951 11.0477C11.9534 11.0177 11.9117 10.9876 11.8701 10.9574C11.6136 10.7722 11.3832 10.6812 11.1655 10.6812C10.8726 10.6812 10.6168 10.849 10.4055 11.1791C10.3121 11.3248 10.1981 11.396 10.0587 11.396C9.96145 11.3926 9.86609 11.368 9.77926 11.324C8.95197 10.9361 8.3606 10.3423 8.02256 9.55857C7.85947 9.17857 7.91172 8.93157 8.19989 8.72969C8.36297 8.61569 8.66697 8.40273 8.6456 7.99503C8.62185 7.5319 7.63147 6.13857 7.21426 5.98023C7.03629 5.91307 6.84004 5.91251 6.66168 5.97865C6.18272 6.1449 5.83835 6.43782 5.66656 6.82336C5.50031 7.19703 5.50822 7.63482 5.68872 8.09082C6.20885 9.40973 6.93956 10.5592 7.86264 11.5077C8.76514 12.4363 9.87506 13.1963 11.1607 13.7679C11.2763 13.8193 11.3982 13.847 11.4869 13.8676L11.5621 13.8866C11.5724 13.8896 11.583 13.8912 11.5938 13.8914H11.6041C12.2089 13.8914 12.9348 13.3214 13.1581 12.6706C13.3536 12.1006 12.9966 11.8196 12.71 11.5939V11.5932ZM10.1474 7.68707C10.0445 7.68944 9.82835 7.69498 9.75235 7.9214C9.71751 8.02748 9.72147 8.11932 9.76501 8.19453C9.82914 8.30536 9.95264 8.3394 10.0643 8.35761C10.4696 8.4249 10.6786 8.65686 10.7198 9.08594C10.7396 9.28703 10.8702 9.42636 11.038 9.42636C11.0507 9.42663 11.0634 9.4261 11.076 9.42478C11.2779 9.39944 11.3753 9.24665 11.3666 8.96957C11.3697 8.67982 11.2233 8.35207 10.9739 8.09082C10.7237 7.82799 10.4221 7.67994 10.1474 7.68707Z" fill="#1F1C1C"/>
<path d="M4.75016 3.16668C4.33024 3.16668 3.92751 3.33349 3.63058 3.63042C3.33364 3.92736 3.16683 4.33008 3.16683 4.75001V14.25C3.16683 14.6699 3.33364 15.0727 3.63058 15.3696C3.92751 15.6665 4.33024 15.8333 4.75016 15.8333H14.2502C14.6701 15.8333 15.0728 15.6665 15.3697 15.3696C15.6667 15.0727 15.8335 14.6699 15.8335 14.25V4.75001C15.8335 4.33008 15.6667 3.92736 15.3697 3.63042C15.0728 3.33349 14.6701 3.16668 14.2502 3.16668H4.75016ZM4.75016 1.58334H14.2502C15.09 1.58334 15.8955 1.91697 16.4893 2.51084C17.0832 3.1047 17.4168 3.91016 17.4168 4.75001V14.25C17.4168 15.0899 17.0832 15.8953 16.4893 16.4892C15.8955 17.083 15.09 17.4167 14.2502 17.4167H4.75016C3.91031 17.4167 3.10486 17.083 2.51099 16.4892C1.91713 15.8953 1.5835 15.0899 1.5835 14.25V4.75001C1.5835 3.91016 1.91713 3.1047 2.51099 2.51084C3.10486 1.91697 3.91031 1.58334 4.75016 1.58334Z" fill="#1F1C1C"/>
</svg>
