<svg width="34" height="34" viewBox="0 0 34 34" fill="none" xmlns="http://www.w3.org/2000/svg">
<path d="M32.8102 15.6745C32.4935 14.6541 31.5273 13.9728 30.4592 14.0156L30.2314 14.0249C29.5631 14.0522 28.9346 14.3276 28.4637 14.7984L24.9418 18.2834C24.8584 18.156 24.7626 18.0348 24.6537 17.9218C24.1907 17.4406 23.542 17.165 22.8743 17.165H17.9065C16.9692 17.165 16.0552 17.0434 15.1894 16.8039C12.9346 16.1798 10.7831 16.6303 8.96735 18.1068C8.20141 18.7299 7.65083 19.4099 7.3131 19.8904C6.93061 19.6245 6.47556 19.485 6.00358 19.4929C5.40495 19.5032 4.8466 19.746 4.43162 20.1774L1.22058 23.5106C0.983426 23.7567 0.98829 24.1479 1.23187 24.3882L3.81412 26.9352C4.05945 27.1771 4.45497 27.1745 4.69718 26.929C4.93901 26.6835 4.93648 26.2884 4.69096 26.0462L2.54799 23.9326L5.33083 21.0435C5.5139 20.8534 5.7604 20.746 6.0244 20.7418C6.29093 20.7369 6.53821 20.8361 6.72789 21.02L11.693 25.8382C11.8823 26.022 11.9887 26.2683 11.9924 26.5321C11.9961 26.7961 11.8967 27.0454 11.7124 27.2345L8.97786 30.0403L8.27417 29.37C8.02437 29.1321 7.62924 29.1418 7.39131 29.3916C7.15376 29.6414 7.16349 30.0366 7.41329 30.2741L8.56366 31.37C8.68467 31.485 8.83953 31.5422 8.9942 31.5422C9.15684 31.5422 9.3191 31.479 9.44147 31.3537L12.6068 28.1059C13.0241 27.6778 13.2492 27.1127 13.241 26.515C13.2371 26.2417 13.1842 25.9765 13.0873 25.7294L14.2023 25.5997C14.7196 25.5395 15.2459 25.5088 15.7667 25.5088H23.3255C23.4413 25.5088 23.5584 25.5039 23.6737 25.4942L24.3981 25.4339C25.1323 25.373 25.8399 25.1182 26.4447 24.6975C26.7416 24.4909 27.0109 24.2466 27.2451 23.9709L32.3386 17.9784C32.8829 17.3381 33.059 16.477 32.8102 15.6745ZM31.3872 17.1696L26.2935 23.1621C26.1292 23.3555 25.9401 23.5271 25.7315 23.6723C25.3068 23.9678 24.8097 24.1466 24.2945 24.1896L23.5699 24.2499C23.4891 24.2567 23.4066 24.2602 23.3255 24.2602H15.7667C15.1978 24.2602 14.6229 24.2935 14.0581 24.359L12.2527 24.5691L8.25861 20.7178C8.53059 20.3147 9.03039 19.6649 9.75528 19.0756C11.2654 17.8478 12.9815 17.4883 14.8564 18.0072C15.8305 18.2768 16.8567 18.4134 17.9065 18.4134H22.8743C23.2045 18.4134 23.5253 18.55 23.7545 18.7877C23.922 18.9616 24.0282 19.1748 24.072 19.3984C24.0712 19.4548 24.0782 19.511 24.0928 19.5657C24.1093 19.8585 24.0216 20.1569 23.8267 20.3995L23.8074 20.4237C23.5745 20.7139 23.2273 20.8807 22.8549 20.8807H18.53C18.1851 20.8807 17.9057 21.16 17.9057 21.5048C17.9057 21.8497 18.1851 22.1293 18.53 22.1293H22.8549C23.608 22.1293 24.3101 21.7923 24.7815 21.2046L24.8008 21.1807C25.1619 20.7309 25.3408 20.1865 25.3426 19.6433L29.3441 15.6837C29.5951 15.4329 29.9281 15.2868 30.2824 15.2724L30.5104 15.2632C31.0139 15.2418 31.4686 15.5638 31.6176 16.0445C31.7392 16.4364 31.653 16.857 31.3872 17.1696Z" fill="#1F1C1C"/>
<path d="M6.01046 22.0585C5.07818 22.0585 4.31982 22.817 4.31982 23.7491C4.31982 24.6816 5.07818 25.4401 6.01046 25.4401C6.94274 25.4401 7.70128 24.6816 7.70128 23.7491C7.70128 22.817 6.94274 22.0585 6.01046 22.0585ZM6.01046 24.1913C5.76669 24.1913 5.56825 23.9931 5.56825 23.7491C5.56825 23.5055 5.76669 23.3073 6.01046 23.3073C6.25403 23.3073 6.45247 23.5055 6.45247 23.7491C6.45247 23.9931 6.25403 24.1913 6.01046 24.1913Z" fill="#1F1C1C"/>
<path d="M15.8771 20.9727L15.845 20.9803C15.5094 21.0591 15.3009 21.3953 15.3801 21.7309C15.4474 22.0184 15.704 22.2126 15.9873 22.2126C16.0343 22.2126 16.0826 22.2069 16.1304 22.1956L16.1627 22.1882C16.4983 22.1094 16.7065 21.7733 16.6277 21.4377C16.5489 21.1021 16.2129 20.8943 15.8771 20.9727Z" fill="#1F1C1C"/>
<path d="M5.92995 27.5804L5.89765 27.588C5.56206 27.667 5.35389 28.0028 5.43268 28.3384C5.50019 28.6261 5.75661 28.8201 6.03987 28.8201C6.08734 28.8201 6.1352 28.8148 6.18345 28.8035L6.21555 28.7961C6.55115 28.7173 6.75951 28.3812 6.68052 28.0456C6.60173 27.7098 6.26555 27.5018 5.92995 27.5804Z" fill="#1F1C1C"/>
<path d="M19.3186 15.5522C22.9621 15.5522 25.9263 12.588 25.9263 8.94448C25.9263 5.30096 22.9621 2.33661 19.3186 2.33661C17.8241 2.33661 16.4144 2.82337 15.2418 3.74398C14.9739 3.95409 14.7204 4.18678 14.4881 4.4358C14.1407 4.80797 13.8362 5.22022 13.5835 5.66049C13.0125 6.65561 12.7109 7.79139 12.7109 8.94448C12.7109 12.588 15.6751 15.5522 19.3186 15.5522ZM14.6665 6.28188C14.8716 5.92449 15.1185 5.59006 15.4008 5.28793C15.5893 5.08559 15.7953 4.89688 16.0126 4.72626C16.9636 3.97997 18.1068 3.58542 19.3186 3.58542C22.2734 3.58542 24.6777 5.98928 24.6777 8.94448C24.6777 11.8995 22.2734 14.3035 19.3186 14.3035C16.3636 14.3035 13.9594 11.8995 13.9594 8.94448C13.9594 8.0089 14.2039 7.08829 14.6665 6.28188Z" fill="#1F1C1C"/>
<path d="M19.8725 11.0814C19.6207 11.231 19.2937 11.2841 19.0719 11.2841C18.6509 11.2841 18.2818 10.788 18.2818 10.2227C18.2818 9.87793 18.0023 9.59837 17.6575 9.59837C17.3126 9.59837 17.0332 9.87793 17.0332 10.2227C17.0332 11.304 17.6919 12.2137 18.5787 12.4641C18.5989 12.7907 18.8694 13.0497 19.2011 13.0497C19.5417 13.0497 19.8182 12.7767 19.8248 12.4374C20.7265 12.2034 21.5047 11.532 21.5047 10.3587C21.5047 8.95188 20.0682 8.18438 19.3304 8.18438C19.3211 8.18438 18.4046 8.10287 18.4046 7.51669C18.4046 6.61651 19.3211 6.59122 19.3304 6.59122C19.504 6.59122 19.7151 6.69433 19.8814 6.86067C19.9614 6.94082 19.9699 6.94919 19.9699 7.28576C19.9699 7.6305 20.2497 7.90871 20.5942 7.90871C20.939 7.90871 21.2187 7.62817 21.2187 7.28323C21.2187 6.88421 21.2187 6.43208 20.7645 5.97761C20.4913 5.70485 20.1641 5.51069 19.8236 5.41381C19.8046 5.08599 19.5338 4.82568 19.2011 4.82568C18.8563 4.82568 18.5768 5.10545 18.5768 5.45019V5.49104C17.8947 5.74454 17.156 6.35037 17.156 7.51669C17.156 8.94721 18.6429 9.43086 19.326 9.4328C19.5135 9.44798 20.2559 9.77677 20.2559 10.3585C20.2559 10.7009 20.1378 10.9236 19.8725 11.0814Z" fill="#1F1C1C"/>
</svg>
