<svg width="33" height="33" viewBox="0 0 33 33" fill="none" xmlns="http://www.w3.org/2000/svg">
<g clip-path="url(#clip0)">
<path d="M32.5154 8.78275C31.643 8.78275 30.9333 8.07305 30.9333 7.20055C30.9333 6.93301 30.7164 6.71619 30.4489 6.71619C30.1813 6.71619 29.9645 6.93301 29.9645 7.20055C29.9645 8.07299 29.2548 8.78275 28.3823 8.78275C28.1148 8.78275 27.8979 8.99957 27.8979 9.26711C27.8979 9.53466 28.1148 9.75148 28.3823 9.75148C29.2548 9.75148 29.9645 10.4612 29.9645 11.3337C29.9645 11.6012 30.1813 11.818 30.4489 11.818C30.7164 11.818 30.9333 11.6012 30.9333 11.3337C30.9333 10.4612 31.6429 9.75148 32.5154 9.75148C32.783 9.75148 32.9998 9.53466 32.9998 9.26711C32.9998 8.99957 32.783 8.78275 32.5154 8.78275ZM30.4489 9.83971C30.2896 9.61999 30.096 9.42644 29.8763 9.26711C30.0961 9.10778 30.2897 8.91417 30.4489 8.69451C30.6083 8.91423 30.8019 9.10778 31.0216 9.26711C30.8018 9.42644 30.6083 9.62006 30.4489 9.83971Z" fill="#1F1C1C"/>
<path d="M4.61724 8.78275C3.74487 8.78275 3.03505 8.07305 3.03505 7.20055C3.03505 6.93301 2.81816 6.71619 2.55068 6.71619C2.2832 6.71619 2.06632 6.93301 2.06632 7.20055C2.06632 8.07299 1.35649 8.78275 0.484121 8.78275C0.216641 8.78275 -0.000244141 8.99957 -0.000244141 9.26711C-0.000244141 9.53466 0.216641 9.75148 0.484121 9.75148C1.35649 9.75148 2.06632 10.4612 2.06632 11.3337C2.06632 11.6012 2.2832 11.818 2.55068 11.818C2.81816 11.818 3.03505 11.6012 3.03505 11.3337C3.03505 10.4612 3.74487 9.75148 4.61724 9.75148C4.88472 9.75148 5.10161 9.53466 5.10161 9.26711C5.10161 8.99957 4.88472 8.78275 4.61724 8.78275ZM2.55068 9.83971C2.39135 9.61999 2.1978 9.42644 1.97808 9.26711C2.19787 9.10778 2.39142 8.91417 2.55068 8.69451C2.71001 8.91423 2.90356 9.10778 3.12328 9.26711C2.90363 9.42644 2.71001 9.62006 2.55068 9.83971Z" fill="#1F1C1C"/>
<path d="M19.0834 2.58315C17.926 2.58315 16.9845 1.64169 16.9845 0.484301C16.9846 0.21682 16.7677 0 16.5002 0C16.2327 0 16.0158 0.21682 16.0158 0.484365C16.0158 1.64169 15.0742 2.58322 13.917 2.58322C13.6495 2.58322 13.4326 2.80004 13.4326 3.06758C13.4326 3.33513 13.6495 3.55195 13.917 3.55195C15.0742 3.55195 16.0158 4.49348 16.0158 5.6508C16.0158 5.91834 16.2327 6.13516 16.5002 6.13516C16.7677 6.13516 16.9846 5.91834 16.9846 5.6508C16.9846 4.49348 17.9261 3.55195 19.0834 3.55195C19.351 3.55195 19.5678 3.33513 19.5678 3.06758C19.5678 2.80004 19.3509 2.58315 19.0834 2.58315ZM16.5002 3.99783C16.2608 3.62504 15.9427 3.30696 15.5698 3.06752C15.9427 2.82807 16.2608 2.51 16.5002 2.1372C16.7396 2.51 17.0577 2.82807 17.4305 3.06752C17.0577 3.30696 16.7396 3.62504 16.5002 3.99783Z" fill="#1F1C1C"/>
<path d="M26.5841 16.3388L24.7 11.0005C24.559 10.601 24.1796 10.3326 23.756 10.3326H9.11475C8.6911 10.3326 8.31179 10.601 8.17083 11.0004L6.28674 16.3388C6.1773 16.6489 6.41513 16.9843 6.74345 16.9843H26.1273C26.2845 16.9843 26.4319 16.908 26.5226 16.7798C26.6134 16.6514 26.6364 16.487 26.5841 16.3388ZM7.42801 16.0156L9.08426 11.3228C9.08864 11.3104 9.10147 11.3013 9.11468 11.3013H23.756C23.7693 11.3013 23.7821 11.3104 23.7865 11.3229L25.4428 16.0156H7.42801Z" fill="#1F1C1C"/>
<path d="M25.7348 22.7319C24.0146 22.7319 22.6672 23.6255 22.6672 24.7662C22.6672 25.9069 24.0146 26.8005 25.7348 26.8005C27.4549 26.8005 28.8023 25.9069 28.8023 24.7662C28.8023 23.6255 27.4549 22.7319 25.7348 22.7319ZM25.7348 25.8317C24.5335 25.8317 23.6359 25.2692 23.6359 24.7662C23.6359 24.2632 24.5334 23.7007 25.7348 23.7007C26.936 23.7007 27.8336 24.2632 27.8336 24.7662C27.8336 25.2692 26.936 25.8317 25.7348 25.8317Z" fill="#1F1C1C"/>
<path d="M7.13612 22.7319C5.41599 22.7319 4.0686 23.6255 4.0686 24.7662C4.0686 25.9069 5.41599 26.8005 7.13612 26.8005C8.85624 26.8005 10.2036 25.9069 10.2036 24.7662C10.2036 23.6255 8.85624 22.7319 7.13612 22.7319ZM7.13612 25.8317C5.93491 25.8317 5.03727 25.2692 5.03727 24.7662C5.03727 24.2632 5.93484 23.7007 7.13612 23.7007C8.33739 23.7007 9.23497 24.2632 9.23497 24.7662C9.23497 25.2692 8.33739 25.8317 7.13612 25.8317Z" fill="#1F1C1C"/>
<path d="M31.9344 15.499H29.3512C29.129 15.499 28.9352 15.6503 28.8813 15.8659L28.5411 17.2268L26.1614 10.4847C25.8022 9.46675 24.8355 8.78278 23.756 8.78278H9.11466C8.03514 8.78278 7.06847 9.46675 6.70921 10.4847L4.3296 17.2269L3.98935 15.8659C3.9354 15.6503 3.74166 15.499 3.51949 15.499H0.936269C0.668789 15.499 0.451904 15.7159 0.451904 15.9834V18.05C0.451904 18.3175 0.668789 18.5343 0.936269 18.5343H3.61153L1.9603 20.846C1.64951 21.2811 1.48522 21.7939 1.48522 22.3287V28.3826C1.48522 29.2215 1.89237 29.967 2.5193 30.4321C2.51911 30.4378 2.51846 30.4434 2.51846 30.4491V31.999C2.51846 32.551 2.96751 33 3.51942 33H6.61923C7.17121 33 7.62019 32.551 7.62019 31.999V30.9335H25.2503V31.999C25.2503 32.551 25.6994 33 26.2513 33H29.3511C29.903 33 30.352 32.551 30.352 31.999V30.4491C30.352 30.4434 30.3514 30.4378 30.3512 30.4321C30.9781 29.967 31.3853 29.2215 31.3853 28.3826V22.3287C31.3853 21.7939 31.2209 21.2811 30.9101 20.846L29.2589 18.5343H31.9342C32.2018 18.5343 32.4186 18.3175 32.4186 18.05V15.9834C32.4187 15.7158 32.2019 15.499 31.9344 15.499ZM1.42063 17.5655V16.4677H3.14127L3.41572 17.5655H1.42063ZM6.65159 31.999C6.65159 32.0168 6.63715 32.0313 6.61929 32.0313H3.51949C3.5017 32.0313 3.48719 32.0168 3.48719 31.999V30.9335H4.03614H6.65159V31.999ZM29.3834 31.999C29.3834 32.0168 29.3689 32.0313 29.3511 32.0313H26.2513C26.2335 32.0313 26.219 32.0168 26.219 31.999V30.9335H28.8345H29.3834V31.999ZM28.8345 29.9648H4.03608C3.33257 29.9648 2.73509 29.5032 2.53 28.867H30.3406C30.1355 29.5032 29.538 29.9648 28.8345 29.9648ZM20.6007 24.7339V25.8317H12.27V24.7339H20.6007ZM12.3461 23.7652C12.5512 23.1289 13.1486 22.6673 13.8522 22.6673H19.0185C19.722 22.6673 20.3195 23.1289 20.5246 23.7652H12.3461ZM20.6007 26.8004V27.8982H12.27V26.8004H20.6007ZM30.1221 21.409C30.3148 21.6789 30.4167 21.9969 30.4167 22.3286V27.8983H21.5694V24.2495C21.5694 22.843 20.425 21.6987 19.0185 21.6987H13.8522C12.4456 21.6987 11.3013 22.843 11.3013 24.2495V27.8983H2.45388V22.3286C2.45388 21.9969 2.55578 21.6789 2.74856 21.409L4.80197 18.5343H22.6349C22.9024 18.5343 23.1192 18.3175 23.1192 18.0499C23.1192 17.7824 22.9024 17.5655 22.6349 17.5655H5.23729L7.62264 10.8071C7.84551 10.1757 8.44506 9.75144 9.11466 9.75144H23.756C24.4256 9.75144 25.0251 10.1757 25.2481 10.8071L27.6333 17.5655H24.7014C24.4339 17.5655 24.2171 17.7824 24.2171 18.0499C24.2171 18.3175 24.4339 18.5343 24.7014 18.5343H28.0686L30.1221 21.409ZM31.45 17.5655H29.4548L29.7293 16.4677H31.45V17.5655Z" fill="#1F1C1C"/>
<path d="M8.68574 21.182H5.58593C5.31845 21.182 5.10156 21.3988 5.10156 21.6664C5.10156 21.9339 5.31845 22.1507 5.58593 22.1507H8.68574C8.95322 22.1507 9.1701 21.9339 9.1701 21.6664C9.1701 21.3988 8.95322 21.182 8.68574 21.182Z" fill="#1F1C1C"/>
<path d="M27.2849 21.182H24.1851C23.9175 21.182 23.7007 21.3988 23.7007 21.6664C23.7007 21.9339 23.9175 22.1507 24.1851 22.1507H27.2849C27.5524 22.1507 27.7692 21.9339 27.7692 21.6664C27.7692 21.3988 27.5524 21.182 27.2849 21.182Z" fill="#1F1C1C"/>
</g>
<defs>
<clipPath id="clip0">
<rect width="33" height="33" fill="white"/>
</clipPath>
</defs>
</svg>
