<svg width="37" height="37" viewBox="0 0 37 37" fill="none" xmlns="http://www.w3.org/2000/svg">
<g clip-path="url(#clip0)">
<path d="M31.2256 8.48316C28.7547 7.64855 26.7774 5.6878 25.9363 3.23813C25.8202 2.90032 25.5037 2.67333 25.1485 2.67333H11.8519C11.4968 2.67333 11.1802 2.90032 11.0641 3.23821C10.223 5.6878 8.24571 7.64855 5.77492 8.48309C5.43465 8.59796 5.20606 8.91508 5.20606 9.27213V15.5754C5.20606 19.8708 6.56866 23.9563 9.14658 27.3901C11.4237 30.4233 14.6426 32.821 18.2105 34.1414C18.3973 34.2105 18.603 34.2105 18.7897 34.1414C21.8772 32.9988 24.6665 31.0871 26.856 28.613C27.0546 28.3887 27.0337 28.0458 26.8093 27.8472C26.5848 27.6486 26.242 27.6696 26.0435 27.8939C23.9926 30.2113 21.3859 32.007 18.5001 33.0914C15.16 31.8358 12.1491 29.5826 10.0143 26.7387C7.57848 23.4942 6.29104 19.6339 6.29104 15.5754V9.45218C8.94325 8.49958 11.0701 6.38975 12.0308 3.7583H24.9693C25.9301 6.38975 28.0569 8.49958 30.7092 9.45218V15.5754C30.7092 19.2765 29.6255 22.8497 27.5753 25.9085C27.4085 26.1574 27.475 26.4944 27.7239 26.6612C27.9728 26.8281 28.3098 26.7615 28.4766 26.5126C30.647 23.2745 31.7942 19.4925 31.7942 15.5754V9.27221C31.7943 8.91516 31.5657 8.59803 31.2256 8.48316ZM16.8726 21.8751C16.8726 22.7725 17.6027 23.5026 18.5002 23.5026C19.3976 23.5026 20.1277 22.7725 20.1277 21.8751V20.4527C20.341 20.1323 20.4532 19.761 20.4532 19.3732C20.4532 18.8381 20.2301 18.3205 19.841 17.953C19.4463 17.5803 18.9296 17.3925 18.3862 17.4233C17.4258 17.4783 16.6384 18.2418 16.5547 19.1993C16.5158 19.6433 16.6285 20.0849 16.8726 20.4526V21.8751ZM17.6357 19.2937C17.6727 18.8694 18.0221 18.5311 18.4482 18.5067C18.4656 18.5056 18.4829 18.5051 18.5001 18.5051C18.7233 18.5051 18.9332 18.5881 19.096 18.7419C19.2716 18.9077 19.3682 19.1319 19.3682 19.3732C19.3682 19.5593 19.3101 19.7366 19.2003 19.8861C19.0972 20.0264 19.0427 20.1948 19.0427 20.3729V21.875C19.0427 22.1742 18.7994 22.4175 18.5002 22.4175C18.201 22.4175 17.9576 22.1742 17.9576 21.875V20.3729C17.9576 20.1948 17.9031 20.0264 17.7999 19.8859C17.7118 19.766 17.6118 19.5659 17.6357 19.2937ZM33.351 6.22482C30.6527 5.95031 28.4923 3.81031 28.2141 1.13626C28.1466 0.488487 27.6056 0 26.9554 0H10.0449C9.39484 0 8.85377 0.488487 8.78642 1.13626C8.50807 3.81024 6.34768 5.95031 3.64946 6.22482C3.00031 6.29087 2.51074 6.83202 2.51074 7.48362V15.5754C2.51074 20.4086 4.03378 25.014 6.91523 28.8936C8.30155 30.7603 9.96268 32.3983 11.8525 33.762C13.7656 35.1427 15.8712 36.2115 18.1107 36.9388C18.3619 37.0204 18.6385 37.0204 18.8897 36.9388C21.1292 36.2115 23.2347 35.1426 25.1479 33.762C27.0377 32.3982 28.6988 30.7603 30.0851 28.8936C32.9666 25.014 34.4896 20.4086 34.4896 15.5754V7.48362C34.4896 6.83202 34.0001 6.2908 33.351 6.22482ZM33.4046 15.5754C33.4046 20.1739 31.9555 24.5555 29.214 28.2467C26.5258 31.8663 22.8398 34.5151 18.5545 35.9069C18.5195 35.9182 18.4809 35.9182 18.4458 35.9069C14.1605 34.5151 10.4745 31.8663 7.7863 28.2467C5.0449 24.5555 3.59579 20.1739 3.59579 15.5754V7.48362C3.59579 7.39081 3.66602 7.3137 3.75927 7.3043C6.96622 6.97806 9.5343 4.43125 9.8656 1.2486C9.8753 1.15535 9.95241 1.08504 10.0449 1.08504H26.9554C27.0479 1.08504 27.125 1.15535 27.1347 1.2486C27.466 4.43125 30.0341 6.97806 33.2411 7.3043C33.3343 7.31377 33.4046 7.39089 33.4046 7.48362V15.5754ZM14.1011 9.17354C14.2607 8.91993 14.1844 8.58501 13.9308 8.42544C13.6772 8.26579 13.3422 8.34218 13.1827 8.59572C12.5543 9.59461 12.2221 10.7477 12.2221 11.9304V14.9479C11.3938 15.4128 10.8325 16.2992 10.8325 17.3148V23.608C10.8325 25.1038 12.0494 26.3206 13.5451 26.3206H23.4552C24.951 26.3206 26.1678 25.1038 26.1678 23.608V17.3148C26.1678 16.2992 25.6066 15.4128 24.7782 14.9479V11.9304C24.7782 8.4687 21.9619 5.65236 18.5002 5.65236C17.3046 5.65236 16.1408 5.99125 15.1347 6.63244C14.8821 6.79346 14.8078 7.12881 14.9688 7.38148C15.1299 7.63415 15.4652 7.70851 15.7178 7.54742C16.5494 7.01749 17.5115 6.7374 18.5001 6.7374C21.3635 6.7374 23.6931 9.06699 23.6931 11.9304V14.6132C23.6146 14.6064 23.5354 14.6022 23.4551 14.6022H22.6081V11.9304C22.6081 10.833 22.1807 9.8012 21.4044 9.02489C20.6281 8.24944 19.5966 7.82237 18.5001 7.82237C16.235 7.82237 14.3921 9.66521 14.3921 11.9303V14.6021H13.5451C13.4648 14.6021 13.3856 14.6063 13.3071 14.6132V11.9304C13.3071 10.9524 13.5817 9.99911 14.1011 9.17354ZM15.4772 11.9304C15.4772 10.2636 16.8333 8.90749 18.5002 8.90749C19.3072 8.90749 20.0662 9.22186 20.6375 9.79238C21.2086 10.3635 21.5231 11.1229 21.5231 11.9304V14.6022H15.4772V11.9304ZM13.5451 15.6872H23.4552C24.3527 15.6872 25.0828 16.4173 25.0828 17.3148V23.608C25.0828 24.5055 24.3527 25.2356 23.4552 25.2356H13.5451C12.6477 25.2356 11.9176 24.5055 11.9176 23.608V17.3148C11.9176 16.4173 12.6477 15.6872 13.5451 15.6872Z" fill="#1F1C1C"/>
</g>
<defs>
<clipPath id="clip0">
<rect width="37" height="37" fill="white"/>
</clipPath>
</defs>
</svg>
